<?xml version="1.0" encoding="UTF-8" standalone="no"?>
<svg
   xmlns:dc="http://purl.org/dc/elements/1.1/"
   xmlns:cc="http://creativecommons.org/ns#"
   xmlns:rdf="http://www.w3.org/1999/02/22-rdf-syntax-ns#"
   xmlns:svg="http://www.w3.org/2000/svg"
   xmlns="http://www.w3.org/2000/svg"
   xmlns:sodipodi="http://sodipodi.sourceforge.net/DTD/sodipodi-0.dtd"
   xmlns:inkscape="http://www.inkscape.org/namespaces/inkscape"
   width="1280"
   height="926"
   viewBox="0 0 338.66667 245.00535"
   version="1.1"
   id="svg871"
   inkscape:version="1.0.2-2 (e86c870879, 2021-01-15)"
   sodipodi:docname="mathpleLogo.svg"
   inkscape:export-filename="C:\Users\USUARIO\Desktop\RICK\MATHPLE\MATH-PLATTFORM\src\public\assets\mathpleLogo.png"
   inkscape:export-xdpi="96"
   inkscape:export-ydpi="96">
  <defs
     id="defs865">
    <filter
       inkscape:collect="always"
       style="color-interpolation-filters:sRGB"
       id="filter1824"
       x="-0.03742601"
       width="1.074852"
       y="-0.24250319"
       height="1.4850064">
      <feGaussianBlur
         inkscape:collect="always"
         stdDeviation="2.4720118"
         id="feGaussianBlur1826" />
    </filter>
  </defs>
  <sodipodi:namedview
     id="base"
     pagecolor="#ffffff"
     bordercolor="#666666"
     borderopacity="1.0"
     inkscape:pageopacity="0.0"
     inkscape:pageshadow="2"
     inkscape:zoom="0.35"
     inkscape:cx="472.04998"
     inkscape:cy="282.86064"
     inkscape:document-units="mm"
     inkscape:current-layer="layer1"
     inkscape:document-rotation="0"
     showgrid="false"
     units="px"
     height="128px"
     inkscape:window-width="1258"
     inkscape:window-height="967"
     inkscape:window-x="6"
     inkscape:window-y="0"
     inkscape:window-maximized="0" />
  <metadata
     id="metadata868">
    <rdf:RDF>
      <cc:Work
         rdf:about="">
        <dc:format>image/svg+xml</dc:format>
        <dc:type
           rdf:resource="http://purl.org/dc/dcmitype/StillImage" />
        <dc:title></dc:title>
      </cc:Work>
    </rdf:RDF>
  </metadata>
  <g
     inkscape:label="Capa 1"
     inkscape:groupmode="layer"
     id="layer1">
    <g
       id="g980"
       transform="matrix(0.55258643,0,0,0.55258643,146.60055,143.50504)" />
    <g
       id="g1602"
       transform="translate(0,1.2851253)">
      <g
         id="g868"
         transform="matrix(0.55258642,0,0,0.55258642,131.46844,94.700818)">
        <path
           style="fill:none;stroke:#000000;stroke-width:1.5;stroke-linecap:butt;stroke-linejoin:miter;stroke-miterlimit:4;stroke-dasharray:none;stroke-opacity:1"
           d="M 75.295243,24.588796 C 159.0368,-4.2611185 131.84212,163.14985 64.676392,112.58192"
           id="path836"
           sodipodi:nodetypes="cc" />
        <path
           style="fill:none;stroke:#000000;stroke-width:1.50855;stroke-linecap:butt;stroke-linejoin:miter;stroke-miterlimit:4;stroke-dasharray:none;stroke-opacity:1"
           d="M 52.861021,25.117964 C -31.837315,-3.7319513 -3.2567196,163.14985 64.676392,112.58192"
           id="path836-1"
           sodipodi:nodetypes="cc" />
        <path
           style="fill:none;stroke:#000000;stroke-width:1.4;stroke-linecap:butt;stroke-linejoin:miter;stroke-miterlimit:4;stroke-dasharray:none;stroke-opacity:1"
           d="m 52.861021,25.117964 11.283666,4.816224 11.150556,-5.345392"
           id="path858"
           sodipodi:nodetypes="ccc" />
        <path
           style="fill:#f70000;fill-opacity:1;stroke:#000000;stroke-width:7.55905;stroke-linejoin:round;stroke-miterlimit:4;stroke-dasharray:none;stroke-opacity:0"
           d="m 349.91853,82.950026 c -35.16558,-0.648917 -68.36151,12.760118 -99.09,28.567024 -4.7471,3.27894 -9.91448,4.23906 -14.86926,0.92237 C 200.97562,97.18097 163.94757,83.058457 125.08874,84.462302 87.283928,84.535151 50.234219,104.34932 30.412398,136.75862 1.0148388,183.80472 -1.0560818,243.09947 9.6890979,296.17964 c 9.5510051,43.95377 28.5565671,87.71189 62.9309531,117.9183 21.826685,22.17877 54.121289,33.56334 85.038439,29.65007 31.07314,-2.03015 58.37386,-18.96295 83.9202,-35.24274 8.66194,-1.56463 14.7624,7.82927 22.26841,10.89286 31.83716,19.95764 72.8117,31.43478 109.05135,16.69084 46.73352,-18.36781 75.69991,-64.37846 90.89428,-110.22746 18.26653,-55.99364 21.63687,-119.55453 -2.52933,-174.33448 -16.44664,-38.13279 -54.53463,-67.97475 -96.88535,-68.426995 -4.81693,-0.181095 -9.63972,-0.198522 -14.45952,-0.150009 z"
           id="path862"
           transform="scale(0.26458333)" />
      </g>
      <path
         id="path870"
         style="fill:#ff6565;fill-opacity:1;stroke:#000000;stroke-width:0.773621;stroke-linejoin:round;stroke-miterlimit:4;stroke-dasharray:none;stroke-opacity:0"
         d="m 182.70053,113.58376 c 1.96751,-2.15522 6.87079,-0.2672 9.6637,2.92881 2.7929,3.19601 4.37689,10.63271 1.91267,12.19602 -2.52249,1.60027 -7.84692,-2.79721 -10.08129,-5.43432 -2.74374,-3.23828 -3.46273,-7.53402 -1.49572,-9.68982 l 5.05764,5.78655 z"
         sodipodi:nodetypes="csssccc" />
      <path
         style="fill:none;stroke:#000000;stroke-width:0;stroke-linecap:butt;stroke-linejoin:miter;stroke-miterlimit:4;stroke-dasharray:none;stroke-opacity:1"
         d="m 165.9669,111.43245 c -54.82006,-14.818606 -24.60855,71.22501 0.50829,47.30699"
         id="path873"
         sodipodi:nodetypes="cc" />
      <path
         style="fill:#c30000;fill-opacity:1;stroke:#000000;stroke-width:0.794244;stroke-linejoin:round;stroke-miterlimit:4;stroke-dasharray:none;stroke-opacity:0"
         d="m 150.53242,106.97373 c -5.27912,-0.20263 -10.52835,2.45658 -13.65436,6.84415 -3.84234,5.37831 -4.94384,12.33237 -4.59044,18.87829 0.33626,6.63105 2.04084,13.37463 5.51725,18.98909 2.06054,3.17385 4.91252,6.3332 8.19014,8.19022 2.80548,1.5189 5.94276,2.30622 9.10418,1.86585 1.02759,-0.13052 2.06569,-0.17802 2.9936,-0.64089 -0.16829,-0.60744 -1.17318,-0.52874 -1.67673,-0.68457 -4.61259,-0.31494 -8.51316,-3.3934 -11.49267,-6.81345 -5.49381,-6.50487 -8.72051,-14.99033 -9.21011,-23.58266 -0.26929,-5.58198 1.53694,-11.18491 5.52336,-15.23232 3.49532,-3.59292 7.99094,-5.32617 12.76158,-5.28462 3.3248,-0.0437 6.61541,0.5533 9.8776,1.10543 0.46518,-0.46682 -0.52281,-0.64251 -0.81644,-0.81346 -3.97869,-1.676 -8.19277,-2.92235 -12.52696,-2.82106 z"
         id="path875"
         sodipodi:nodetypes="ccccccccccccccc" />
      <path
         style="fill:none;stroke:#000000;stroke-width:1.63842;stroke-linecap:butt;stroke-linejoin:miter;stroke-miterlimit:4;stroke-dasharray:none;stroke-opacity:1"
         d="m 166.91392,111.24204 c -2.32026,-6.15921 -4.53568,-9.58188 -13.41017,-14.407521"
         id="path877"
         sodipodi:nodetypes="cc" />
      <path
         style="fill:#c30000;fill-opacity:1;stroke:#000000;stroke-width:0;stroke-linejoin:round;stroke-miterlimit:4;stroke-dasharray:none;stroke-opacity:0"
         d="m 166.7777,154.24506 c -3.17596,1.99123 -6.42779,4.06532 -10.12942,4.86273 -1.09831,0.24813 -2.2304,0.27596 -3.34765,0.4416 -0.26202,0.0988 -0.10944,0.43627 0.123,0.44251 1.27776,0.43103 2.67274,0.53066 3.95751,0.77375 0.27405,0.0264 0.49462,0.2179 0.60089,0.45557 0.30807,0.16436 0.65484,-0.10895 0.96392,-0.16016 2.88083,-0.94869 5.53737,-2.47987 7.98533,-4.25333 0.0928,0.28242 0.45078,0.33091 0.5445,0.02 0.34238,0.17059 0.69218,0.49636 1.04544,0.72062 2.62657,1.81967 5.53924,3.30267 8.67043,4.00841 0.37059,0.0126 0.30076,-0.46111 0.3134,-0.70564 -0.0182,-0.61882 0.0503,-1.25556 -0.0357,-1.86224 -0.29873,-0.22032 -0.74227,-0.21622 -1.09966,-0.34657 -2.18203,-0.58447 -4.24559,-1.54922 -6.18614,-2.71116 -0.97901,-0.48866 -1.73284,-1.40893 -2.82501,-1.66262 -0.19092,-0.0184 -0.39397,-0.0811 -0.5808,-0.0235 z"
         id="path879" />
      <path
         style="fill:#c30000;fill-opacity:1;stroke:#000000;stroke-width:0;stroke-linejoin:round;stroke-miterlimit:4;stroke-dasharray:none;stroke-opacity:0"
         d="m 201.13992,133.75643 c -0.3377,0.34592 -0.10911,0.91502 -0.27515,1.34681 -0.98461,5.88932 -2.87153,11.75452 -6.51805,16.56801 -2.75556,3.66295 -6.6834,6.69447 -11.28317,7.4457 -1.80846,0.2113 -3.66158,0.17455 -5.45434,-0.13218 -0.45576,0.27153 -0.15328,0.9702 -0.24925,1.39883 0.04,0.49973 -0.24509,1.42312 0.58221,1.29383 3.21163,0.63063 6.59891,0.0662 9.51572,-1.38289 4.78227,-2.46637 8.09423,-7.03978 10.32245,-11.81989 2.05537,-4.51425 3.3023,-9.40686 3.65901,-14.35291 0.014,-0.17446 -0.0657,-0.43472 -0.29943,-0.36531 z"
         id="path881" />
    </g>
    <g
       id="g936"
       transform="translate(-84.900293,49.788735)">
      <rect
         style="fill:#c87137;fill-opacity:1;stroke:#19ff31;stroke-width:0.781598;stroke-linejoin:round;stroke-opacity:0"
         id="rect1420"
         width="129.89502"
         height="64.177803"
         x="187.87405"
         y="115.34331"
         ry="5.8517752" />
      <rect
         style="fill:#00f555;fill-opacity:1;stroke:#19ff31;stroke-width:0.781598;stroke-linejoin:round;stroke-opacity:0"
         id="rect1422"
         width="130.05055"
         height="23.061867"
         x="187.87405"
         y="115.34331"
         ry="5.8517752" />
      <text
         xml:space="preserve"
         style="font-style:normal;font-variant:normal;font-weight:bold;font-stretch:normal;font-size:38.5892px;line-height:1.25;font-family:Arimo;-inkscape-font-specification:'Arimo, Bold';font-variant-ligatures:normal;font-variant-caps:normal;font-variant-numeric:normal;font-variant-east-asian:normal;word-spacing:0px;fill:#ffffff;fill-opacity:1;stroke-width:0.144709"
         x="212.87679"
         y="160.69841"
         id="text1019"
         transform="scale(0.9403525,1.063431)"><tspan
           sodipodi:role="line"
           id="tspan1017"
           x="212.87679"
           y="160.69841"
           style="font-style:normal;font-variant:normal;font-weight:bold;font-stretch:normal;font-size:38.5892px;font-family:Arimo;-inkscape-font-specification:'Arimo, Bold';font-variant-ligatures:normal;font-variant-caps:normal;font-variant-numeric:normal;font-variant-east-asian:normal;fill:#ffffff;fill-opacity:1;stroke-width:0.144709">a+b=c </tspan></text>
    </g>
    <text
       xml:space="preserve"
       style="font-style:normal;font-variant:normal;font-weight:bold;font-stretch:normal;font-size:34.1775px;line-height:1.25;font-family:Arimo;-inkscape-font-specification:'Arimo, Bold';font-variant-ligatures:normal;font-variant-caps:normal;font-variant-numeric:normal;font-variant-east-asian:normal;word-spacing:0px;fill:#838383;fill-opacity:1;stroke:#000000;stroke-width:1.218;stroke-miterlimit:4;stroke-dasharray:none;stroke-opacity:1;filter:url(#filter1824);"
       x="11.56092"
       y="34.878227"
       id="text1023"
       transform="matrix(1.9223553,0,0,2.4012245,-8.5440684,1.7586486)"><tspan
         sodipodi:role="line"
         x="11.56092"
         y="34.878227"
         style="font-style:normal;font-variant:normal;font-weight:bold;font-stretch:normal;font-size:34.1775px;font-family:Arimo;-inkscape-font-specification:'Arimo, Bold';font-variant-ligatures:normal;font-variant-caps:normal;font-variant-numeric:normal;font-variant-east-asian:normal;fill:#838383;fill-opacity:1;stroke:#000000;stroke-width:1.218;stroke-miterlimit:4;stroke-dasharray:none;stroke-opacity:1;"
         id="tspan866">MATHPLE</tspan></text>
    <text
       xml:space="preserve"
       style="font-style:normal;font-variant:normal;font-weight:bold;font-stretch:normal;font-size:73.5127px;line-height:1.25;font-family:Arimo;-inkscape-font-specification:'Arimo, Bold';font-variant-ligatures:normal;font-variant-caps:normal;font-variant-numeric:normal;font-variant-east-asian:normal;word-spacing:0px;fill:#ffffff;fill-opacity:1;stroke:#ffffff;stroke-width:2.6198;stroke-miterlimit:4;stroke-dasharray:none;stroke-opacity:1"
       x="11.748775"
       y="73.062523"
       id="text1023-3"
       transform="scale(0.89474737,1.1176339)"><tspan
         sodipodi:role="line"
         x="11.748775"
         y="73.062523"
         style="font-style:normal;font-variant:normal;font-weight:bold;font-stretch:normal;font-size:73.5127px;font-family:Arimo;-inkscape-font-specification:'Arimo, Bold';font-variant-ligatures:normal;font-variant-caps:normal;font-variant-numeric:normal;font-variant-east-asian:normal;fill:#ffffff;fill-opacity:1;stroke:#ffffff;stroke-width:2.6198;stroke-miterlimit:4;stroke-dasharray:none;stroke-opacity:1"
         id="tspan866-8">MATHPLE</tspan></text>
  </g>
</svg>
